<svg width="1494" height="505" viewBox="0 0 1494 505" fill="none" xmlns="http://www.w3.org/2000/svg">
<path d="M2 263.71C45.8432 248.591 90.3136 219.663 123.169 186.808C146.585 163.392 164.356 139.911 180.716 111.554C192.783 90.6386 194.717 69.6038 194.717 46.1823C194.717 34.5079 197.528 14.6197 190.084 4.69458C186.967 0.537408 176.208 2.42975 171.863 2.42975C155.036 2.42975 150.347 51.2156 150.244 62.7568C149.789 113.669 160.642 162.022 171.451 211.618C177.65 240.058 178.371 268.16 179.893 297.065C180.327 305.313 176.287 280.823 176.187 272.563C175.943 252.597 176.187 232.615 176.187 212.648C176.187 200.559 175.835 188.833 174.334 176.822C173.674 171.542 171.598 166.387 172.583 160.968C175.129 146.968 212.685 173.636 215.204 177.234C232.499 201.942 240.706 232.237 247.632 260.93C251.124 275.396 257.981 282.933 268.942 268.136C286.018 245.084 293.997 217.753 309.606 194.117C313.672 187.961 317.512 181.98 322.577 176.616C325.393 173.635 311.389 184.049 309.194 186.293C292.18 203.695 292.636 225.725 292.929 248.268C293.082 260.041 301.807 280.711 316.401 280.387C340.197 279.858 354.172 263.964 352.02 241.37C350.262 222.903 336.661 210.865 327.313 196.176C319.61 184.072 342.338 220.628 349.55 233.031C358.191 247.894 367.282 262.496 377.139 276.578C380.641 281.58 383.029 287.149 388.258 290.476C404.122 300.571 421.856 281.64 426.348 267.416C432.354 248.399 428.477 214.308 415.23 198.853C409.433 192.09 408.163 189.741 400.406 186.293C389.346 181.378 389.38 194.151 393.405 201.118C405.399 221.876 431.739 219.899 452.394 219.134C462.067 218.775 480.623 214.354 485.543 204.515C489.565 196.471 489.352 210.553 489.352 212.957C489.352 234.399 492.935 261.946 505.309 280.181C527.108 312.307 540.312 247.464 541.855 233.855C542.904 224.602 544.568 213.944 541.649 204.824C539.097 196.849 540.534 221.644 541.649 229.943C543.743 245.531 551.184 261.836 557.915 275.857C562.013 284.396 566.837 296.258 575.004 301.8C601.235 319.6 623.96 230.979 626.889 217.795C635.475 179.158 635.093 137.004 625.036 98.7883C624.258 95.8302 622.441 89.9801 618.036 91.582C611 94.1407 611.653 107.371 611.653 112.995C611.653 133.219 613.893 154.81 620.918 173.837C626.776 189.702 630.184 206.602 630.184 223.56C630.184 241.37 630.184 259.18 630.184 276.99C630.184 281.309 629.954 299.64 627.507 284.608C623.474 259.836 625.979 224.777 643.258 204.618C648.042 199.037 660.851 205.208 665.392 208.53C676.315 216.523 679.75 226.806 682.069 239.414C685.137 256.098 681.293 273.385 684.334 289.858C686.453 301.337 711.414 264.763 713.571 261.033C724.758 241.683 736.826 223.102 748.367 204C749.212 202.601 757.442 187.08 759.485 189.999C760.432 191.351 748.217 209.656 747.338 211.824C743.082 222.322 736.122 233.523 735.807 245.179C735.651 250.977 732.307 274.706 742.396 272.872C748.019 271.85 756.295 257.53 758.765 252.591C761.592 246.937 759.897 237.594 759.897 231.487C759.897 224.065 761.75 216.711 761.75 209.045C761.75 207.235 759.426 192.831 762.059 199.677C768.805 217.215 772.951 234.184 777.501 252.385C780.906 266.004 782.444 282.895 800.252 279.975C826.287 275.707 832.589 236.27 832.166 215.119C831.761 194.846 823.219 189.279 804.988 189.588C796.7 189.728 785.044 194.4 792.222 204.412C808.747 227.459 853.844 209.159 872.727 199.059C880.573 194.862 880.345 192.674 880.345 202.25C880.345 218.148 876.61 232.245 873.963 247.753C873.427 250.887 870.342 268.847 873.963 270.916C882.341 275.704 899.365 261.176 904.847 257.327C929.692 239.882 941.632 207.965 958.07 183.308C959.834 180.663 959.812 185.352 959.615 186.293C958.39 192.145 954.409 197.456 951.688 202.662C944.364 216.673 935.616 230.314 930.378 245.282C928.667 250.168 920.615 280.998 932.231 280.387C940.707 279.941 947.35 259.452 948.496 253.415C950.642 242.117 956.32 230.763 956.32 219.236C956.32 198.657 961.713 230.746 961.879 236.326C962.065 242.553 962.441 261.545 969.292 265.151C977.275 269.353 983.073 246.814 984.116 242.914C987.694 229.543 987.822 215.67 987.822 201.941C987.822 189.384 989.675 196.814 989.675 204.721C989.675 227.787 989.41 250.68 987.925 273.696C987.113 286.285 987.089 290.892 988.028 273.284C988.849 257.897 1010.8 177.514 1026.74 223.56C1031.66 237.78 1030.53 254.787 1037.75 268.033C1037.95 268.39 1057.36 251.816 1061.02 249.812C1061.77 249.398 1071.13 244.395 1070.28 243.12C1069.34 241.7 1067.28 244.747 1065.86 245.694C1057.77 251.085 1049.46 255.657 1040.74 260.004C997.476 281.563 952.791 300.049 907.523 316.933C809.623 353.45 710.423 387.046 608.771 411.542C471.236 444.684 332.161 471.374 193.276 498.017C186.162 499.382 164.826 502.753 172.069 502.753C184.743 502.753 201.072 493.803 212.63 490.399C296.649 465.655 383.058 446.907 468.351 427.293C679.074 378.835 891.073 336.158 1101.68 287.182C1208.84 262.263 1316.7 238.681 1422.26 207.501C1454.7 197.918 1453.25 197.897 1479.81 189.588C1483.75 188.353 1495.78 186.035 1491.65 185.882C1474.62 185.251 1456.19 191.257 1440.17 195.765C1407.66 204.913 1377.05 218.575 1345.25 229.737C1309.02 242.458 1269.01 255.733 1230.57 260.004" stroke="black" stroke-width="3" stroke-linecap="round"/>
</svg>
